<svg width="18" height="18" viewBox="0 0 18 18" fill="none" xmlns="http://www.w3.org/2000/svg">
<path d="M8.99369 9.5157C9.52555 9.5157 10.0522 9.41094 10.5436 9.20741C11.0349 9.00388 11.4814 8.70556 11.8575 8.32948C12.2336 7.9534 12.5319 7.50694 12.7354 7.01557C12.9389 6.5242 13.0437 5.99755 13.0437 5.4657C13.0437 4.93385 12.9389 4.4072 12.7354 3.91583C12.5319 3.42446 12.2336 2.97799 11.8575 2.60192C11.4814 2.22584 11.0349 1.92752 10.5436 1.72399C10.0522 1.52046 9.52555 1.4157 8.99369 1.4157C7.91957 1.4157 6.88943 1.8424 6.12991 2.60192C5.37039 3.36144 4.94369 4.39157 4.94369 5.4657C4.94369 6.53983 5.37039 7.56996 6.12991 8.32948C6.88943 9.089 7.91957 9.5157 8.99369 9.5157ZM8.99999 2.86693e-07C10.1855 -0.000385877 11.3381 0.389348 12.2802 1.10907C13.2222 1.82879 13.9011 2.8385 14.2124 3.9824C14.5236 5.12631 14.4497 6.34084 14.0022 7.4386C13.5546 8.53636 12.7583 9.45634 11.736 10.0566C15.0552 11.0556 17.5482 13.8528 17.9955 17.3268C18.0378 17.6571 17.7921 17.9568 17.4465 17.9973C17.1018 18.0378 16.7868 17.8038 16.7445 17.4735C16.2585 13.7025 12.9924 10.863 9.03149 10.863C5.04899 10.863 1.74059 13.7079 1.25549 17.4735C1.21319 17.8038 0.898193 18.0378 0.553493 17.9973C0.207893 17.9568 -0.0378072 17.6571 0.00449278 17.3268C0.450893 13.8672 2.95739 11.0736 6.28199 10.0656C5.25661 9.46806 4.45663 8.54937 4.00575 7.45158C3.55486 6.35378 3.47818 5.13801 3.78757 3.99227C4.09695 2.84652 4.77517 1.8346 5.71735 1.11297C6.65954 0.391336 7.81321 0.000188336 8.99999 2.86693e-07Z" fill="black"/>
</svg>
